<svg xmlns="http://www.w3.org/2000/svg" viewBox="0 0 200 200">
  <rect width="200" height="200" rx="36" fill="#000000"/>
  <!-- White border/outline layer -->
  <g transform="translate(100,105) scale(1.05)" fill="white" stroke="white" stroke-width="6" stroke-linejoin="round">
    <polygon points="-55,-45 -70,-95 -30,-55"/>
    <polygon points="55,-45 70,-95 30,-55"/>
    <path d="M-58,-30 C-65,-60 -55,-85 -30,-55 L-70,-95 L-55,-45 C-60,-20 -55,5 -45,25 L-25,55 L0,70 L25,55 L45,25 C55,5 60,-20 55,-45 L70,-95 L30,-55 C55,-85 65,-60 58,-30 C62,-50 58,-70 45,-80 C30,-92 15,-95 0,-95 C-15,-95 -30,-92 -45,-80 C-58,-70 -62,-50 -58,-30 Z"/>
    <path d="M-25,55 C-15,65 -8,72 0,75 C8,72 15,65 25,55 L0,70 Z"/>
  </g>
  <!-- Green wolf head -->
  <g transform="translate(100,105)" fill="#1a5632">
    <polygon points="-55,-45 -70,-95 -30,-55"/>
    <polygon points="55,-45 70,-95 30,-55"/>
    <ellipse cx="0" cy="-25" rx="52" ry="45"/>
    <path d="M-45,-50 C-40,-75 -20,-90 0,-90 C20,-90 40,-75 45,-50 L55,-45 L70,-95 L30,-55 L0,-65 L-30,-55 L-70,-95 L-55,-45 Z"/>
    <path d="M-50,-10 C-52,10 -45,30 -25,50 L0,65 L25,50 C45,30 52,10 50,-10 Z"/>
    <ellipse cx="0" cy="15" rx="22" ry="18"/>
    <polygon points="-20,45 0,68 20,45"/>
  </g>
  <!-- Face details -->
  <g transform="translate(100,105)">
    <ellipse cx="-18" cy="-20" rx="10" ry="7" fill="#0e3a20"/>
    <ellipse cx="18" cy="-20" rx="10" ry="7" fill="#0e3a20"/>
    <ellipse cx="-16" cy="-21" rx="4" ry="3" fill="#2a7a4a"/>
    <ellipse cx="20" cy="-21" rx="4" ry="3" fill="#2a7a4a"/>
    <ellipse cx="0" cy="12" rx="8" ry="5.5" fill="#0e3a20"/>
    <ellipse cx="-1" cy="11" rx="3" ry="2" fill="#1a4a2a" opacity="0.5"/>
    <path d="M-30,-30 C-25,-35 -18,-32 -12,-26" stroke="#0e3a20" stroke-width="2.5" fill="none" stroke-linecap="round"/>
    <path d="M30,-30 C25,-35 18,-32 12,-26" stroke="#0e3a20" stroke-width="2.5" fill="none" stroke-linecap="round"/>
    <line x1="0" y1="-45" x2="0" y2="-30" stroke="#0e3a20" stroke-width="2" stroke-linecap="round"/>
    <path d="M-12,25 C-6,30 6,30 12,25" stroke="#0e3a20" stroke-width="2" fill="none" stroke-linecap="round"/>
  </g>
</svg>
